<svg width="32" height="32" viewBox="0 0 32 32" fill="none" xmlns="http://www.w3.org/2000/svg">
    <rect width="32" height="32" fill="#FFF6F9" />

    <!-- Pixel Art Letter F in a cute style -->
    <rect x="8" y="6" width="4" height="4" fill="#FF92D0" />
    <rect x="12" y="6" width="4" height="4" fill="#FF92D0" />
    <rect x="16" y="6" width="4" height="4" fill="#FF92D0" />
    <rect x="20" y="6" width="4" height="4" fill="#FF92D0" />

    <rect x="8" y="10" width="4" height="4" fill="#FF92D0" />

    <rect x="8" y="14" width="4" height="4" fill="#FF92D0" />
    <rect x="12" y="14" width="4" height="4" fill="#FF92D0" />
    <rect x="16" y="14" width="4" height="4" fill="#FF92D0" />

    <rect x="8" y="18" width="4" height="4" fill="#FF92D0" />

    <rect x="8" y="22" width="4" height="4" fill="#FF92D0" />

    <!-- Cute heart -->
    <rect x="20" y="18" width="4" height="4" fill="#A17BFE" />
    <rect x="24" y="18" width="4" height="4" fill="#A17BFE" />
    <rect x="20" y="22" width="4" height="4" fill="#A17BFE" />
    <rect x="24" y="22" width="4" height="4" fill="#A17BFE" />
    <rect x="18" y="16" width="4" height="4" fill="#A17BFE" />
    <rect x="26" y="16" width="4" height="4" fill="#A17BFE" />

    <style>
        @media (prefers-color-scheme: dark) {
        rect:first-child { fill: #FFF6F9; }
        }
    </style>
</svg>